<svg id="Layer_1" data-name="Layer 1" xmlns="http://www.w3.org/2000/svg" viewBox="0 0 554.27 893.55"><defs><style>.cls-1{fill:#ffe73c;}.cls-2{fill:#23234e;}.cls-3{fill:#e31513;}</style></defs><title>Artboard 1</title><rect class="cls-1" width="554.27" height="554.27"/><path class="cls-2" d="M378.08,554.29l-115.4-85.23,111.58-80.75L132,219.25l0,118.49,58.82,38.59V331.27l78.06,57L132,486.63l0,243.09ZM188.42,613.18V521.52l21.5-15.47,60.61,48.24Z"/><polygon class="cls-3" points="508.21 554.29 132.03 832.97 132.03 759.47 417.32 554.37 304.89 469.06 392.39 402.39 442.14 436.23 391.25 469.06 508.21 554.29"/><polygon class="cls-3" points="190.88 411.93 132.03 444.72 108.02 430.84 108.02 851.27 49.97 893.55 50.11 159.83 108.02 200.1 107.23 358.39 190.88 411.93"/></svg>